<svg xmlns="http://www.w3.org/2000/svg" viewBox="0 0 300 100" width="300" height="100">
  <path d="M30,50 C35,40 40,30 45,40 C50,50 55,60 60,50 C65,40 70,30 75,40 C80,50 85,60 90,50" 
        stroke="#F8FAFC" 
        stroke-width="2" 
        fill="none" 
        stroke-linecap="round" 
        stroke-linejoin="round"
        transform="translate(0, 10) rotate(-5)" />
  
  <!-- A -->
  <path d="M20,70 C25,50 30,30 35,50 C40,70 45,80 50,70 C55,60 60,50 65,60" 
        stroke="#F8FAFC" 
        stroke-width="3" 
        fill="none" 
        stroke-linecap="round" 
        stroke-linejoin="round" />
  
  <!-- n -->
  <path d="M70,70 C70,60 70,50 70,60 C70,70 75,80 80,70 C85,60 85,50 85,60" 
        stroke="#F8FAFC" 
        stroke-width="2" 
        fill="none" 
        stroke-linecap="round" 
        stroke-linejoin="round" />
  
  <!-- d -->
  <path d="M90,70 C90,60 90,50 90,40 C90,30 90,20 90,30 C90,40 95,50 100,40 C105,30 105,40 105,50" 
        stroke="#F8FAFC" 
        stroke-width="2" 
        fill="none" 
        stroke-linecap="round" 
        stroke-linejoin="round" />
  
  <!-- r -->
  <path d="M110,70 C110,60 110,50 110,60 C110,70 115,60 120,50" 
        stroke="#F8FAFC" 
        stroke-width="2" 
        fill="none" 
        stroke-linecap="round" 
        stroke-linejoin="round" />
  
  <!-- e -->
  <path d="M125,60 C130,50 135,60 130,70 C125,80 120,70 125,60 C130,50 135,50 140,50" 
        stroke="#F8FAFC" 
        stroke-width="2" 
        fill="none" 
        stroke-linecap="round" 
        stroke-linejoin="round" />
  
  <!-- w -->
  <path d="M145,60 C145,70 145,80 150,70 C155,60 155,70 160,80 C165,70 165,60 165,70" 
        stroke="#F8FAFC" 
        stroke-width="2" 
        fill="none" 
        stroke-linecap="round" 
        stroke-linejoin="round" />
  
  <!-- J -->
  <path d="M175,40 C180,50 185,60 180,70 C175,80 170,70 175,60" 
        stroke="#F8FAFC" 
        stroke-width="3" 
        fill="none" 
        stroke-linecap="round" 
        stroke-linejoin="round" />
  
  <!-- . -->
  <circle cx="190" cy="70" r="1.5" fill="#F8FAFC" />
  
  <!-- G -->
  <path d="M200,60 C205,50 210,40 215,50 C220,60 215,70 210,80 C205,90 200,80 205,70 C210,60 215,60 220,60" 
        stroke="#F8FAFC" 
        stroke-width="2.5" 
        fill="none" 
        stroke-linecap="round" 
        stroke-linejoin="round" />
  
  <!-- r -->
  <path d="M225,70 C225,60 225,50 225,60 C225,70 230,60 235,50" 
        stroke="#F8FAFC" 
        stroke-width="2" 
        fill="none" 
        stroke-linecap="round" 
        stroke-linejoin="round" />
  
  <!-- e -->
  <path d="M240,60 C245,50 250,60 245,70 C240,80 235,70 240,60 C245,50 250,50 255,50" 
        stroke="#F8FAFC" 
        stroke-width="2" 
        fill="none" 
        stroke-linecap="round" 
        stroke-linejoin="round" />
  
  <!-- e -->
  <path d="M260,60 C265,50 270,60 265,70 C260,80 255,70 260,60 C265,50 270,50 275,50" 
        stroke="#F8FAFC" 
        stroke-width="2" 
        fill="none" 
        stroke-linecap="round" 
        stroke-linejoin="round" />
  
  <!-- n -->
  <path d="M280,70 C280,60 280,50 280,60 C280,70 285,80 290,70 C295,60 295,50 295,60" 
        stroke="#F8FAFC" 
        stroke-width="2" 
        fill="none" 
        stroke-linecap="round" 
        stroke-linejoin="round" />
</svg>
